<mxfile host="app.diagrams.net" agent="Mozilla/5.0 (Windows NT 10.0; Win64; x64) AppleWebKit/537.36 (KHTML, like Gecko) Chrome/130.0.0.0 Safari/537.36 OPR/115.0.0.0" version="26.0.6" pages="3">
  <diagram name="inicio" id="C9ZahooGxBihevK_7a3Z">
    <mxGraphModel dx="398" dy="516" grid="1" gridSize="10" guides="1" tooltips="1" connect="1" arrows="1" fold="1" page="1" pageScale="1" pageWidth="827" pageHeight="1169" math="0" shadow="0">
      <root>
        <mxCell id="0" />
        <mxCell id="1" parent="0" />
        <mxCell id="Kpb9it9NjHFFavK-8-n2-1" value="Inicio" style="ellipse;whiteSpace=wrap;html=1;" vertex="1" parent="1">
          <mxGeometry x="180" y="30" width="120" height="70" as="geometry" />
        </mxCell>
        <mxCell id="Kpb9it9NjHFFavK-8-n2-2" value="Fim" style="ellipse;whiteSpace=wrap;html=1;" vertex="1" parent="1">
          <mxGeometry x="180" y="600" width="120" height="70" as="geometry" />
        </mxCell>
        <mxCell id="Kpb9it9NjHFFavK-8-n2-43" style="edgeStyle=orthogonalEdgeStyle;rounded=0;orthogonalLoop=1;jettySize=auto;html=1;exitX=0.5;exitY=1;exitDx=0;exitDy=0;entryX=0.5;entryY=0;entryDx=0;entryDy=0;" edge="1" parent="1" source="Kpb9it9NjHFFavK-8-n2-40" target="Kpb9it9NjHFFavK-8-n2-42">
          <mxGeometry relative="1" as="geometry" />
        </mxCell>
        <UserObject label="MaiorMenor" link="data:page/id,NGQDjfwu66lC6Ow0XXJ5" id="Kpb9it9NjHFFavK-8-n2-40">
          <mxCell style="shape=process;whiteSpace=wrap;html=1;backgroundOutline=1;" vertex="1" parent="1">
            <mxGeometry x="180" y="400" width="120" height="50" as="geometry" />
          </mxCell>
        </UserObject>
        <mxCell id="Kpb9it9NjHFFavK-8-n2-44" style="edgeStyle=orthogonalEdgeStyle;rounded=0;orthogonalLoop=1;jettySize=auto;html=1;exitX=0.5;exitY=1;exitDx=0;exitDy=0;entryX=0.5;entryY=0;entryDx=0;entryDy=0;" edge="1" parent="1" source="Kpb9it9NjHFFavK-8-n2-42" target="Kpb9it9NjHFFavK-8-n2-2">
          <mxGeometry relative="1" as="geometry" />
        </mxCell>
        <UserObject label="finalizar" link="data:page/id,PQzZfvLfUJHiQpDq7L9y" id="Kpb9it9NjHFFavK-8-n2-42">
          <mxCell style="shape=process;whiteSpace=wrap;html=1;backgroundOutline=1;" vertex="1" parent="1">
            <mxGeometry x="180" y="500" width="120" height="50" as="geometry" />
          </mxCell>
        </UserObject>
        <mxCell id="It_KnBubgo78hFundPux-2" style="edgeStyle=orthogonalEdgeStyle;rounded=0;orthogonalLoop=1;jettySize=auto;html=1;exitX=0.5;exitY=1;exitDx=0;exitDy=0;entryX=0.5;entryY=0;entryDx=0;entryDy=0;" edge="1" parent="1" target="It_KnBubgo78hFundPux-4" source="Kpb9it9NjHFFavK-8-n2-1">
          <mxGeometry relative="1" as="geometry">
            <mxPoint x="240" y="100" as="sourcePoint" />
          </mxGeometry>
        </mxCell>
        <mxCell id="It_KnBubgo78hFundPux-3" style="edgeStyle=orthogonalEdgeStyle;rounded=0;orthogonalLoop=1;jettySize=auto;html=1;exitX=0.5;exitY=1;exitDx=0;exitDy=0;entryX=0.5;entryY=0;entryDx=0;entryDy=0;" edge="1" parent="1" source="It_KnBubgo78hFundPux-4" target="It_KnBubgo78hFundPux-6">
          <mxGeometry relative="1" as="geometry" />
        </mxCell>
        <mxCell id="It_KnBubgo78hFundPux-4" value="var_Num[8] = {45,39,4,77,99,22,33,12}" style="rounded=1;whiteSpace=wrap;html=1;absoluteArcSize=1;arcSize=14;strokeWidth=2;" vertex="1" parent="1">
          <mxGeometry x="155" y="130" width="170" height="50" as="geometry" />
        </mxCell>
        <mxCell id="It_KnBubgo78hFundPux-5" style="edgeStyle=orthogonalEdgeStyle;rounded=0;orthogonalLoop=1;jettySize=auto;html=1;exitX=0.5;exitY=1;exitDx=0;exitDy=0;entryX=0.5;entryY=0;entryDx=0;entryDy=0;" edge="1" parent="1" source="It_KnBubgo78hFundPux-6" target="It_KnBubgo78hFundPux-7">
          <mxGeometry relative="1" as="geometry" />
        </mxCell>
        <mxCell id="It_KnBubgo78hFundPux-6" value="maior = num[0]" style="rounded=1;whiteSpace=wrap;html=1;absoluteArcSize=1;arcSize=14;strokeWidth=2;" vertex="1" parent="1">
          <mxGeometry x="190" y="220" width="100" height="50" as="geometry" />
        </mxCell>
        <mxCell id="It_KnBubgo78hFundPux-8" style="edgeStyle=orthogonalEdgeStyle;rounded=0;orthogonalLoop=1;jettySize=auto;html=1;exitX=0.5;exitY=1;exitDx=0;exitDy=0;entryX=0.5;entryY=0;entryDx=0;entryDy=0;" edge="1" parent="1" source="It_KnBubgo78hFundPux-7" target="Kpb9it9NjHFFavK-8-n2-40">
          <mxGeometry relative="1" as="geometry" />
        </mxCell>
        <mxCell id="It_KnBubgo78hFundPux-7" value="menor = num[0]" style="rounded=1;whiteSpace=wrap;html=1;absoluteArcSize=1;arcSize=14;strokeWidth=2;" vertex="1" parent="1">
          <mxGeometry x="190" y="310" width="100" height="50" as="geometry" />
        </mxCell>
      </root>
    </mxGraphModel>
  </diagram>
  <diagram id="NGQDjfwu66lC6Ow0XXJ5" name="MaiorMenor">
    <mxGraphModel dx="398" dy="516" grid="1" gridSize="10" guides="1" tooltips="1" connect="1" arrows="1" fold="1" page="1" pageScale="1" pageWidth="827" pageHeight="1169" math="0" shadow="0">
      <root>
        <mxCell id="0" />
        <mxCell id="1" parent="0" />
        <mxCell id="W6WWAo-VraU2lFLDkDVo-38" style="edgeStyle=orthogonalEdgeStyle;rounded=0;orthogonalLoop=1;jettySize=auto;html=1;exitX=0.5;exitY=1;exitDx=0;exitDy=0;entryX=0.5;entryY=0;entryDx=0;entryDy=0;" edge="1" parent="1" source="W6WWAo-VraU2lFLDkDVo-2" target="W6WWAo-VraU2lFLDkDVo-27">
          <mxGeometry relative="1" as="geometry" />
        </mxCell>
        <mxCell id="W6WWAo-VraU2lFLDkDVo-2" value="MaiorMenor" style="ellipse;whiteSpace=wrap;html=1;" vertex="1" parent="1">
          <mxGeometry x="180" y="30" width="120" height="70" as="geometry" />
        </mxCell>
        <mxCell id="W6WWAo-VraU2lFLDkDVo-3" value="Fim" style="ellipse;whiteSpace=wrap;html=1;" vertex="1" parent="1">
          <mxGeometry x="180" y="400" width="120" height="70" as="geometry" />
        </mxCell>
        <mxCell id="W6WWAo-VraU2lFLDkDVo-39" style="edgeStyle=orthogonalEdgeStyle;rounded=0;orthogonalLoop=1;jettySize=auto;html=1;exitX=1;exitY=0.5;exitDx=0;exitDy=0;entryX=1;entryY=0.5;entryDx=0;entryDy=0;" edge="1" parent="1" source="W6WWAo-VraU2lFLDkDVo-27" target="W6WWAo-VraU2lFLDkDVo-3">
          <mxGeometry relative="1" as="geometry">
            <Array as="points">
              <mxPoint x="460" y="155" />
              <mxPoint x="460" y="435" />
            </Array>
          </mxGeometry>
        </mxCell>
        <mxCell id="W6WWAo-VraU2lFLDkDVo-27" value="i=0; i&amp;lt;8; i++" style="rounded=1;whiteSpace=wrap;html=1;absoluteArcSize=1;arcSize=14;strokeWidth=2;" vertex="1" parent="1">
          <mxGeometry x="190" y="130" width="100" height="50" as="geometry" />
        </mxCell>
        <mxCell id="lirgQjrIOkT4k_Iemp01-2" style="edgeStyle=orthogonalEdgeStyle;rounded=0;orthogonalLoop=1;jettySize=auto;html=1;exitX=1;exitY=0.5;exitDx=0;exitDy=0;exitPerimeter=0;entryX=0;entryY=0.5;entryDx=0;entryDy=0;" edge="1" parent="1" source="W6WWAo-VraU2lFLDkDVo-28" target="lirgQjrIOkT4k_Iemp01-1">
          <mxGeometry relative="1" as="geometry" />
        </mxCell>
        <mxCell id="W6WWAo-VraU2lFLDkDVo-28" value="num[i]&amp;gt;maior" style="strokeWidth=2;html=1;shape=mxgraph.flowchart.decision;whiteSpace=wrap;" vertex="1" parent="1">
          <mxGeometry x="175" y="220" width="130" height="60" as="geometry" />
        </mxCell>
        <mxCell id="W6WWAo-VraU2lFLDkDVo-29" style="edgeStyle=orthogonalEdgeStyle;rounded=0;orthogonalLoop=1;jettySize=auto;html=1;exitX=0.5;exitY=1;exitDx=0;exitDy=0;entryX=0.5;entryY=0;entryDx=0;entryDy=0;entryPerimeter=0;" edge="1" parent="1" source="W6WWAo-VraU2lFLDkDVo-27" target="W6WWAo-VraU2lFLDkDVo-28">
          <mxGeometry relative="1" as="geometry" />
        </mxCell>
        <mxCell id="W6WWAo-VraU2lFLDkDVo-34" style="edgeStyle=orthogonalEdgeStyle;rounded=0;orthogonalLoop=1;jettySize=auto;html=1;exitX=0;exitY=0.5;exitDx=0;exitDy=0;entryX=0;entryY=0.5;entryDx=0;entryDy=0;exitPerimeter=0;" edge="1" parent="1" source="lirgQjrIOkT4k_Iemp01-3" target="W6WWAo-VraU2lFLDkDVo-27">
          <mxGeometry relative="1" as="geometry">
            <Array as="points">
              <mxPoint x="150" y="340" />
              <mxPoint x="150" y="155" />
            </Array>
            <mxPoint x="190" y="445" as="sourcePoint" />
          </mxGeometry>
        </mxCell>
        <mxCell id="W6WWAo-VraU2lFLDkDVo-36" value="V" style="text;html=1;align=center;verticalAlign=middle;resizable=0;points=[];autosize=1;strokeColor=none;fillColor=none;" vertex="1" parent="1">
          <mxGeometry x="240" y="180" width="30" height="30" as="geometry" />
        </mxCell>
        <mxCell id="W6WWAo-VraU2lFLDkDVo-37" value="F" style="edgeLabel;html=1;align=center;verticalAlign=middle;resizable=0;points=[];" vertex="1" connectable="0" parent="1">
          <mxGeometry x="320" y="140" as="geometry">
            <mxPoint as="offset" />
          </mxGeometry>
        </mxCell>
        <mxCell id="lirgQjrIOkT4k_Iemp01-1" value="maior = num[i]" style="rounded=1;whiteSpace=wrap;html=1;absoluteArcSize=1;arcSize=14;strokeWidth=2;" vertex="1" parent="1">
          <mxGeometry x="340" y="225" width="100" height="50" as="geometry" />
        </mxCell>
        <mxCell id="lirgQjrIOkT4k_Iemp01-6" style="edgeStyle=orthogonalEdgeStyle;rounded=0;orthogonalLoop=1;jettySize=auto;html=1;exitX=1;exitY=0.5;exitDx=0;exitDy=0;exitPerimeter=0;entryX=0;entryY=0.5;entryDx=0;entryDy=0;" edge="1" parent="1" source="lirgQjrIOkT4k_Iemp01-3" target="lirgQjrIOkT4k_Iemp01-5">
          <mxGeometry relative="1" as="geometry" />
        </mxCell>
        <mxCell id="lirgQjrIOkT4k_Iemp01-3" value="num[i]&amp;lt;menor" style="strokeWidth=2;html=1;shape=mxgraph.flowchart.decision;whiteSpace=wrap;" vertex="1" parent="1">
          <mxGeometry x="175" y="310" width="130" height="60" as="geometry" />
        </mxCell>
        <mxCell id="lirgQjrIOkT4k_Iemp01-4" style="edgeStyle=orthogonalEdgeStyle;rounded=0;orthogonalLoop=1;jettySize=auto;html=1;exitX=0.5;exitY=1;exitDx=0;exitDy=0;exitPerimeter=0;entryX=0.5;entryY=0;entryDx=0;entryDy=0;entryPerimeter=0;" edge="1" parent="1" source="W6WWAo-VraU2lFLDkDVo-28" target="lirgQjrIOkT4k_Iemp01-3">
          <mxGeometry relative="1" as="geometry" />
        </mxCell>
        <mxCell id="lirgQjrIOkT4k_Iemp01-5" value="menor = num[i]" style="rounded=1;whiteSpace=wrap;html=1;absoluteArcSize=1;arcSize=14;strokeWidth=2;" vertex="1" parent="1">
          <mxGeometry x="340" y="315" width="100" height="50" as="geometry" />
        </mxCell>
      </root>
    </mxGraphModel>
  </diagram>
  <diagram id="PQzZfvLfUJHiQpDq7L9y" name="finalizar">
    <mxGraphModel dx="477" dy="619" grid="1" gridSize="10" guides="1" tooltips="1" connect="1" arrows="1" fold="1" page="1" pageScale="1" pageWidth="827" pageHeight="1169" math="0" shadow="0">
      <root>
        <mxCell id="0" />
        <mxCell id="1" parent="0" />
        <mxCell id="Hhbj1FvJ_4GW9eHZ_tmG-2" value="finalizar" style="ellipse;whiteSpace=wrap;html=1;" vertex="1" parent="1">
          <mxGeometry x="180" y="70" width="120" height="70" as="geometry" />
        </mxCell>
        <mxCell id="Hhbj1FvJ_4GW9eHZ_tmG-3" value="Fim" style="ellipse;whiteSpace=wrap;html=1;" vertex="1" parent="1">
          <mxGeometry x="180" y="260" width="120" height="70" as="geometry" />
        </mxCell>
        <mxCell id="Hhbj1FvJ_4GW9eHZ_tmG-18" style="edgeStyle=orthogonalEdgeStyle;rounded=0;orthogonalLoop=1;jettySize=auto;html=1;exitX=0.5;exitY=1;exitDx=0;exitDy=0;exitPerimeter=0;entryX=0.5;entryY=0;entryDx=0;entryDy=0;" edge="1" parent="1" source="Hhbj1FvJ_4GW9eHZ_tmG-9" target="Hhbj1FvJ_4GW9eHZ_tmG-3">
          <mxGeometry relative="1" as="geometry" />
        </mxCell>
        <mxCell id="Hhbj1FvJ_4GW9eHZ_tmG-9" value="maior&lt;div&gt;menor&lt;/div&gt;" style="strokeWidth=2;html=1;shape=mxgraph.flowchart.display;whiteSpace=wrap;" vertex="1" parent="1">
          <mxGeometry x="190" y="170" width="100" height="60" as="geometry" />
        </mxCell>
        <mxCell id="Hhbj1FvJ_4GW9eHZ_tmG-17" style="edgeStyle=orthogonalEdgeStyle;rounded=0;orthogonalLoop=1;jettySize=auto;html=1;exitX=0.5;exitY=1;exitDx=0;exitDy=0;entryX=0.5;entryY=0;entryDx=0;entryDy=0;entryPerimeter=0;" edge="1" parent="1" source="Hhbj1FvJ_4GW9eHZ_tmG-2" target="Hhbj1FvJ_4GW9eHZ_tmG-9">
          <mxGeometry relative="1" as="geometry" />
        </mxCell>
      </root>
    </mxGraphModel>
  </diagram>
</mxfile>
